<mxfile host="Electron" modified="2024-04-11T15:45:28.332Z" agent="Mozilla/5.0 (Windows NT 10.0; Win64; x64) AppleWebKit/537.36 (KHTML, like Gecko) draw.io/21.6.1 Chrome/112.0.5615.204 Electron/24.6.1 Safari/537.36" etag="pbtgtzgZGKoURM8_qNDN" version="21.6.1" type="device">
  <diagram id="R2lEEEUBdFMjLlhIrx00" name="Page-1">
    <mxGraphModel dx="1405" dy="982" grid="1" gridSize="10" guides="1" tooltips="1" connect="1" arrows="1" fold="1" page="1" pageScale="1" pageWidth="850" pageHeight="1100" math="0" shadow="0" extFonts="Permanent Marker^https://fonts.googleapis.com/css?family=Permanent+Marker">
      <root>
        <mxCell id="0" />
        <mxCell id="1" parent="0" />
        <mxCell id="7H_N8t5FlbTLg9l8uyXJ-1" value="Name" style="ellipse;whiteSpace=wrap;html=1;align=center;" vertex="1" parent="1">
          <mxGeometry x="-130" y="170" width="100" height="40" as="geometry" />
        </mxCell>
        <mxCell id="7H_N8t5FlbTLg9l8uyXJ-2" value="Address" style="ellipse;whiteSpace=wrap;html=1;align=center;" vertex="1" parent="1">
          <mxGeometry x="90" y="170" width="100" height="40" as="geometry" />
        </mxCell>
        <mxCell id="7H_N8t5FlbTLg9l8uyXJ-3" value="User&lt;br&gt;" style="rounded=1;arcSize=10;whiteSpace=wrap;html=1;align=center;" vertex="1" parent="1">
          <mxGeometry x="-20" y="260" width="100" height="40" as="geometry" />
        </mxCell>
        <mxCell id="7H_N8t5FlbTLg9l8uyXJ-5" value="Phone" style="ellipse;whiteSpace=wrap;html=1;align=center;" vertex="1" parent="1">
          <mxGeometry x="-200" y="300" width="100" height="40" as="geometry" />
        </mxCell>
        <mxCell id="7H_N8t5FlbTLg9l8uyXJ-6" value="Email" style="ellipse;whiteSpace=wrap;html=1;align=center;" vertex="1" parent="1">
          <mxGeometry x="-150" y="230" width="100" height="40" as="geometry" />
        </mxCell>
        <mxCell id="7H_N8t5FlbTLg9l8uyXJ-7" value="Password" style="ellipse;whiteSpace=wrap;html=1;align=center;" vertex="1" parent="1">
          <mxGeometry x="130" y="240" width="100" height="40" as="geometry" />
        </mxCell>
        <mxCell id="7H_N8t5FlbTLg9l8uyXJ-10" value="Id" style="ellipse;whiteSpace=wrap;html=1;align=center;fontStyle=4;" vertex="1" parent="1">
          <mxGeometry x="-20" y="110" width="100" height="40" as="geometry" />
        </mxCell>
        <mxCell id="7H_N8t5FlbTLg9l8uyXJ-12" value="" style="endArrow=none;html=1;rounded=0;edgeStyle=orthogonalEdgeStyle;exitX=0.5;exitY=1;exitDx=0;exitDy=0;entryX=0.5;entryY=0;entryDx=0;entryDy=0;" edge="1" parent="1" source="7H_N8t5FlbTLg9l8uyXJ-10" target="7H_N8t5FlbTLg9l8uyXJ-3">
          <mxGeometry relative="1" as="geometry">
            <mxPoint y="200" as="sourcePoint" />
            <mxPoint x="160" y="200" as="targetPoint" />
          </mxGeometry>
        </mxCell>
        <mxCell id="7H_N8t5FlbTLg9l8uyXJ-14" value="" style="endArrow=none;html=1;rounded=0;edgeStyle=orthogonalEdgeStyle;exitX=1;exitY=0.5;exitDx=0;exitDy=0;entryX=0.25;entryY=0;entryDx=0;entryDy=0;" edge="1" parent="1" source="7H_N8t5FlbTLg9l8uyXJ-1" target="7H_N8t5FlbTLg9l8uyXJ-3">
          <mxGeometry relative="1" as="geometry">
            <mxPoint x="-10" y="160" as="sourcePoint" />
            <mxPoint x="-10" y="270" as="targetPoint" />
          </mxGeometry>
        </mxCell>
        <mxCell id="7H_N8t5FlbTLg9l8uyXJ-15" value="" style="endArrow=none;html=1;rounded=0;edgeStyle=orthogonalEdgeStyle;exitX=1;exitY=0.5;exitDx=0;exitDy=0;entryX=0;entryY=0.5;entryDx=0;entryDy=0;" edge="1" parent="1" source="7H_N8t5FlbTLg9l8uyXJ-6" target="7H_N8t5FlbTLg9l8uyXJ-3">
          <mxGeometry relative="1" as="geometry">
            <mxPoint x="-20" y="200" as="sourcePoint" />
            <mxPoint x="15" y="270" as="targetPoint" />
          </mxGeometry>
        </mxCell>
        <mxCell id="7H_N8t5FlbTLg9l8uyXJ-16" value="" style="endArrow=none;html=1;rounded=0;edgeStyle=orthogonalEdgeStyle;exitX=1;exitY=0.5;exitDx=0;exitDy=0;entryX=0;entryY=0.75;entryDx=0;entryDy=0;" edge="1" parent="1" source="7H_N8t5FlbTLg9l8uyXJ-5" target="7H_N8t5FlbTLg9l8uyXJ-3">
          <mxGeometry relative="1" as="geometry">
            <mxPoint x="-40" y="260" as="sourcePoint" />
            <mxPoint x="-10" y="290" as="targetPoint" />
          </mxGeometry>
        </mxCell>
        <mxCell id="7H_N8t5FlbTLg9l8uyXJ-17" value="" style="endArrow=none;html=1;rounded=0;edgeStyle=orthogonalEdgeStyle;exitX=1;exitY=0.5;exitDx=0;exitDy=0;entryX=0.25;entryY=1;entryDx=0;entryDy=0;" edge="1" parent="1" source="7H_N8t5FlbTLg9l8uyXJ-21" target="7H_N8t5FlbTLg9l8uyXJ-3">
          <mxGeometry relative="1" as="geometry">
            <mxPoint x="-20" y="380" as="sourcePoint" />
            <mxPoint x="10" y="300" as="targetPoint" />
            <Array as="points">
              <mxPoint y="380" />
              <mxPoint y="300" />
            </Array>
          </mxGeometry>
        </mxCell>
        <mxCell id="7H_N8t5FlbTLg9l8uyXJ-18" value="" style="endArrow=none;html=1;rounded=0;edgeStyle=orthogonalEdgeStyle;exitX=0.5;exitY=1;exitDx=0;exitDy=0;entryX=0.75;entryY=0;entryDx=0;entryDy=0;" edge="1" parent="1" source="7H_N8t5FlbTLg9l8uyXJ-2" target="7H_N8t5FlbTLg9l8uyXJ-3">
          <mxGeometry relative="1" as="geometry">
            <mxPoint x="40" y="160" as="sourcePoint" />
            <mxPoint x="40" y="270" as="targetPoint" />
          </mxGeometry>
        </mxCell>
        <mxCell id="7H_N8t5FlbTLg9l8uyXJ-19" value="" style="endArrow=none;html=1;rounded=0;edgeStyle=orthogonalEdgeStyle;exitX=0;exitY=0.5;exitDx=0;exitDy=0;entryX=1;entryY=0.5;entryDx=0;entryDy=0;" edge="1" parent="1" target="7H_N8t5FlbTLg9l8uyXJ-3">
          <mxGeometry relative="1" as="geometry">
            <mxPoint x="130" y="260" as="sourcePoint" />
            <mxPoint x="65" y="270" as="targetPoint" />
          </mxGeometry>
        </mxCell>
        <mxCell id="7H_N8t5FlbTLg9l8uyXJ-20" value="" style="endArrow=none;html=1;rounded=0;edgeStyle=orthogonalEdgeStyle;exitX=0.5;exitY=0;exitDx=0;exitDy=0;entryX=1;entryY=0.75;entryDx=0;entryDy=0;" edge="1" parent="1" source="7H_N8t5FlbTLg9l8uyXJ-22" target="7H_N8t5FlbTLg9l8uyXJ-3">
          <mxGeometry relative="1" as="geometry">
            <mxPoint x="128" y="352" as="sourcePoint" />
            <mxPoint x="90" y="290" as="targetPoint" />
            <Array as="points">
              <mxPoint x="150" y="290" />
            </Array>
          </mxGeometry>
        </mxCell>
        <mxCell id="7H_N8t5FlbTLg9l8uyXJ-21" value="Is_Agent" style="ellipse;whiteSpace=wrap;html=1;align=center;dashed=1;" vertex="1" parent="1">
          <mxGeometry x="-200" y="360" width="100" height="40" as="geometry" />
        </mxCell>
        <mxCell id="7H_N8t5FlbTLg9l8uyXJ-22" value="Create_at" style="ellipse;whiteSpace=wrap;html=1;align=center;dashed=1;" vertex="1" parent="1">
          <mxGeometry x="100" y="370" width="100" height="40" as="geometry" />
        </mxCell>
        <mxCell id="7H_N8t5FlbTLg9l8uyXJ-24" value="Placing Order" style="shape=associativeEntity;whiteSpace=wrap;html=1;align=center;" vertex="1" parent="1">
          <mxGeometry x="120" y="440" width="100" height="40" as="geometry" />
        </mxCell>
        <mxCell id="7H_N8t5FlbTLg9l8uyXJ-30" value="" style="endArrow=none;html=1;rounded=0;exitX=0.5;exitY=1;exitDx=0;exitDy=0;entryX=0;entryY=0.5;entryDx=0;entryDy=0;edgeStyle=orthogonalEdgeStyle;" edge="1" parent="1" source="7H_N8t5FlbTLg9l8uyXJ-3" target="7H_N8t5FlbTLg9l8uyXJ-24">
          <mxGeometry relative="1" as="geometry">
            <mxPoint x="240" y="530" as="sourcePoint" />
            <mxPoint x="400" y="530" as="targetPoint" />
          </mxGeometry>
        </mxCell>
        <mxCell id="7H_N8t5FlbTLg9l8uyXJ-31" value="N" style="resizable=0;html=1;whiteSpace=wrap;align=right;verticalAlign=bottom;" connectable="0" vertex="1" parent="7H_N8t5FlbTLg9l8uyXJ-30">
          <mxGeometry x="1" relative="1" as="geometry" />
        </mxCell>
        <mxCell id="7H_N8t5FlbTLg9l8uyXJ-32" value="" style="endArrow=none;html=1;rounded=0;exitX=1;exitY=0.5;exitDx=0;exitDy=0;entryX=0.07;entryY=-0.05;entryDx=0;entryDy=0;edgeStyle=orthogonalEdgeStyle;entryPerimeter=0;" edge="1" parent="1" source="7H_N8t5FlbTLg9l8uyXJ-24" target="7H_N8t5FlbTLg9l8uyXJ-39">
          <mxGeometry relative="1" as="geometry">
            <mxPoint x="220" y="450" as="sourcePoint" />
            <mxPoint x="320" y="650" as="targetPoint" />
            <Array as="points">
              <mxPoint x="260" y="460" />
              <mxPoint x="260" y="630" />
              <mxPoint x="320" y="630" />
              <mxPoint x="320" y="638" />
            </Array>
          </mxGeometry>
        </mxCell>
        <mxCell id="7H_N8t5FlbTLg9l8uyXJ-33" value="N" style="resizable=0;html=1;whiteSpace=wrap;align=right;verticalAlign=bottom;" connectable="0" vertex="1" parent="7H_N8t5FlbTLg9l8uyXJ-32">
          <mxGeometry x="1" relative="1" as="geometry" />
        </mxCell>
        <mxCell id="7H_N8t5FlbTLg9l8uyXJ-39" value="Order_Product" style="shape=ext;margin=3;double=1;whiteSpace=wrap;html=1;align=center;" vertex="1" parent="1">
          <mxGeometry x="320" y="640" width="130" height="40" as="geometry" />
        </mxCell>
        <mxCell id="7H_N8t5FlbTLg9l8uyXJ-40" value="In" style="shape=rhombus;double=1;perimeter=rhombusPerimeter;whiteSpace=wrap;html=1;align=center;" vertex="1" parent="1">
          <mxGeometry x="320" y="510" width="130" height="60" as="geometry" />
        </mxCell>
        <mxCell id="7H_N8t5FlbTLg9l8uyXJ-41" value="Have" style="shape=rhombus;double=1;perimeter=rhombusPerimeter;whiteSpace=wrap;html=1;align=center;" vertex="1" parent="1">
          <mxGeometry x="317.5" y="750" width="135" height="60" as="geometry" />
        </mxCell>
        <mxCell id="7H_N8t5FlbTLg9l8uyXJ-44" value="" style="shape=link;html=1;rounded=0;exitX=0.5;exitY=1;exitDx=0;exitDy=0;entryX=0.5;entryY=0;entryDx=0;entryDy=0;" edge="1" parent="1" source="7H_N8t5FlbTLg9l8uyXJ-40" target="7H_N8t5FlbTLg9l8uyXJ-39">
          <mxGeometry relative="1" as="geometry">
            <mxPoint x="240" y="530" as="sourcePoint" />
            <mxPoint x="400" y="530" as="targetPoint" />
          </mxGeometry>
        </mxCell>
        <mxCell id="7H_N8t5FlbTLg9l8uyXJ-45" value="N" style="resizable=0;html=1;whiteSpace=wrap;align=right;verticalAlign=bottom;" connectable="0" vertex="1" parent="7H_N8t5FlbTLg9l8uyXJ-44">
          <mxGeometry x="1" relative="1" as="geometry" />
        </mxCell>
        <mxCell id="7H_N8t5FlbTLg9l8uyXJ-56" value="" style="shape=link;html=1;rounded=0;exitX=0.5;exitY=1;exitDx=0;exitDy=0;entryX=0.5;entryY=0;entryDx=0;entryDy=0;" edge="1" parent="1" source="7H_N8t5FlbTLg9l8uyXJ-39" target="7H_N8t5FlbTLg9l8uyXJ-41">
          <mxGeometry relative="1" as="geometry">
            <mxPoint x="180" y="740" as="sourcePoint" />
            <mxPoint x="340" y="740" as="targetPoint" />
          </mxGeometry>
        </mxCell>
        <mxCell id="7H_N8t5FlbTLg9l8uyXJ-57" value="N" style="resizable=0;html=1;whiteSpace=wrap;align=right;verticalAlign=bottom;" connectable="0" vertex="1" parent="7H_N8t5FlbTLg9l8uyXJ-56">
          <mxGeometry x="1" relative="1" as="geometry" />
        </mxCell>
        <mxCell id="7H_N8t5FlbTLg9l8uyXJ-61" value="Order" style="rounded=1;arcSize=10;whiteSpace=wrap;html=1;align=center;" vertex="1" parent="1">
          <mxGeometry x="460" y="260" width="100" height="40" as="geometry" />
        </mxCell>
        <mxCell id="7H_N8t5FlbTLg9l8uyXJ-62" value="Product" style="rounded=1;arcSize=10;whiteSpace=wrap;html=1;align=center;" vertex="1" parent="1">
          <mxGeometry x="335" y="900" width="100" height="40" as="geometry" />
        </mxCell>
        <mxCell id="7H_N8t5FlbTLg9l8uyXJ-67" value="" style="endArrow=none;html=1;rounded=0;exitX=0.5;exitY=1;exitDx=0;exitDy=0;entryX=0.5;entryY=0;entryDx=0;entryDy=0;edgeStyle=orthogonalEdgeStyle;" edge="1" parent="1" source="7H_N8t5FlbTLg9l8uyXJ-61" target="7H_N8t5FlbTLg9l8uyXJ-40">
          <mxGeometry relative="1" as="geometry">
            <mxPoint x="240" y="530" as="sourcePoint" />
            <mxPoint x="400" y="530" as="targetPoint" />
            <Array as="points">
              <mxPoint x="510" y="440" />
              <mxPoint x="385" y="440" />
            </Array>
          </mxGeometry>
        </mxCell>
        <mxCell id="7H_N8t5FlbTLg9l8uyXJ-68" value="1" style="resizable=0;html=1;whiteSpace=wrap;align=right;verticalAlign=bottom;" connectable="0" vertex="1" parent="7H_N8t5FlbTLg9l8uyXJ-67">
          <mxGeometry x="1" relative="1" as="geometry" />
        </mxCell>
        <mxCell id="7H_N8t5FlbTLg9l8uyXJ-69" value="" style="endArrow=none;html=1;rounded=0;exitX=0.5;exitY=1;exitDx=0;exitDy=0;entryX=0.5;entryY=0;entryDx=0;entryDy=0;align=center;horizontal=1;" edge="1" parent="1" source="7H_N8t5FlbTLg9l8uyXJ-41" target="7H_N8t5FlbTLg9l8uyXJ-62">
          <mxGeometry relative="1" as="geometry">
            <mxPoint x="240" y="730" as="sourcePoint" />
            <mxPoint x="400" y="730" as="targetPoint" />
          </mxGeometry>
        </mxCell>
        <mxCell id="7H_N8t5FlbTLg9l8uyXJ-70" value="1" style="resizable=0;html=1;whiteSpace=wrap;align=right;verticalAlign=bottom;" connectable="0" vertex="1" parent="7H_N8t5FlbTLg9l8uyXJ-69">
          <mxGeometry x="1" relative="1" as="geometry" />
        </mxCell>
        <mxCell id="7H_N8t5FlbTLg9l8uyXJ-80" value="Address" style="ellipse;whiteSpace=wrap;html=1;align=center;" vertex="1" parent="1">
          <mxGeometry x="480" y="120" width="100" height="40" as="geometry" />
        </mxCell>
        <mxCell id="7H_N8t5FlbTLg9l8uyXJ-81" value="Name" style="ellipse;whiteSpace=wrap;html=1;align=center;" vertex="1" parent="1">
          <mxGeometry x="310" y="170" width="100" height="40" as="geometry" />
        </mxCell>
        <mxCell id="7H_N8t5FlbTLg9l8uyXJ-82" value="Phone" style="ellipse;whiteSpace=wrap;html=1;align=center;" vertex="1" parent="1">
          <mxGeometry x="240" y="120" width="100" height="40" as="geometry" />
        </mxCell>
        <mxCell id="7H_N8t5FlbTLg9l8uyXJ-83" value="Email" style="ellipse;whiteSpace=wrap;html=1;align=center;" vertex="1" parent="1">
          <mxGeometry x="370" y="120" width="100" height="40" as="geometry" />
        </mxCell>
        <mxCell id="7H_N8t5FlbTLg9l8uyXJ-84" value="Is_paid" style="ellipse;whiteSpace=wrap;html=1;align=center;" vertex="1" parent="1">
          <mxGeometry x="570" y="170" width="100" height="40" as="geometry" />
        </mxCell>
        <mxCell id="7H_N8t5FlbTLg9l8uyXJ-85" value="Status" style="ellipse;whiteSpace=wrap;html=1;align=center;" vertex="1" parent="1">
          <mxGeometry x="660" y="120" width="100" height="40" as="geometry" />
        </mxCell>
        <mxCell id="7H_N8t5FlbTLg9l8uyXJ-86" value="Product_price" style="ellipse;whiteSpace=wrap;html=1;align=center;" vertex="1" parent="1">
          <mxGeometry x="660" y="320" width="100" height="40" as="geometry" />
        </mxCell>
        <mxCell id="7H_N8t5FlbTLg9l8uyXJ-88" value="" style="endArrow=none;html=1;rounded=0;exitX=0.5;exitY=1;exitDx=0;exitDy=0;entryX=0;entryY=0;entryDx=0;entryDy=0;edgeStyle=orthogonalEdgeStyle;" edge="1" parent="1" source="7H_N8t5FlbTLg9l8uyXJ-81" target="7H_N8t5FlbTLg9l8uyXJ-61">
          <mxGeometry relative="1" as="geometry">
            <mxPoint x="420" y="330" as="sourcePoint" />
            <mxPoint x="580" y="330" as="targetPoint" />
            <Array as="points">
              <mxPoint x="350" y="220" />
              <mxPoint x="400" y="220" />
              <mxPoint x="400" y="260" />
            </Array>
          </mxGeometry>
        </mxCell>
        <mxCell id="7H_N8t5FlbTLg9l8uyXJ-89" value="" style="endArrow=none;html=1;rounded=0;exitX=0.5;exitY=1;exitDx=0;exitDy=0;entryX=0;entryY=0.25;entryDx=0;entryDy=0;edgeStyle=orthogonalEdgeStyle;" edge="1" parent="1" source="7H_N8t5FlbTLg9l8uyXJ-82" target="7H_N8t5FlbTLg9l8uyXJ-61">
          <mxGeometry relative="1" as="geometry">
            <mxPoint x="463" y="120" as="sourcePoint" />
            <mxPoint x="495" y="270" as="targetPoint" />
            <Array as="points">
              <mxPoint x="300" y="160" />
              <mxPoint x="300" y="270" />
            </Array>
          </mxGeometry>
        </mxCell>
        <mxCell id="7H_N8t5FlbTLg9l8uyXJ-90" value="" style="endArrow=none;html=1;rounded=0;exitX=0.5;exitY=1;exitDx=0;exitDy=0;entryX=0.25;entryY=0;entryDx=0;entryDy=0;edgeStyle=orthogonalEdgeStyle;" edge="1" parent="1" source="7H_N8t5FlbTLg9l8uyXJ-83" target="7H_N8t5FlbTLg9l8uyXJ-61">
          <mxGeometry relative="1" as="geometry">
            <mxPoint x="463" y="120" as="sourcePoint" />
            <mxPoint x="495" y="270" as="targetPoint" />
          </mxGeometry>
        </mxCell>
        <mxCell id="7H_N8t5FlbTLg9l8uyXJ-94" value="" style="endArrow=none;html=1;rounded=0;exitX=0.5;exitY=1;exitDx=0;exitDy=0;entryX=0.75;entryY=0;entryDx=0;entryDy=0;edgeStyle=orthogonalEdgeStyle;" edge="1" parent="1" source="7H_N8t5FlbTLg9l8uyXJ-80" target="7H_N8t5FlbTLg9l8uyXJ-61">
          <mxGeometry relative="1" as="geometry">
            <mxPoint x="420" y="330" as="sourcePoint" />
            <mxPoint x="580" y="330" as="targetPoint" />
            <Array as="points">
              <mxPoint x="530" y="260" />
            </Array>
          </mxGeometry>
        </mxCell>
        <mxCell id="7H_N8t5FlbTLg9l8uyXJ-95" value="" style="endArrow=none;html=1;rounded=0;entryX=0.5;entryY=1;entryDx=0;entryDy=0;exitX=1;exitY=0.5;exitDx=0;exitDy=0;edgeStyle=orthogonalEdgeStyle;" edge="1" parent="1" source="7H_N8t5FlbTLg9l8uyXJ-61" target="7H_N8t5FlbTLg9l8uyXJ-85">
          <mxGeometry relative="1" as="geometry">
            <mxPoint x="420" y="330" as="sourcePoint" />
            <mxPoint x="580" y="330" as="targetPoint" />
            <Array as="points">
              <mxPoint x="710" y="280" />
            </Array>
          </mxGeometry>
        </mxCell>
        <mxCell id="7H_N8t5FlbTLg9l8uyXJ-111" value="" style="endArrow=none;html=1;rounded=0;entryX=0.5;entryY=0;entryDx=0;entryDy=0;exitX=1;exitY=0.75;exitDx=0;exitDy=0;edgeStyle=orthogonalEdgeStyle;" edge="1" parent="1" source="7H_N8t5FlbTLg9l8uyXJ-61" target="7H_N8t5FlbTLg9l8uyXJ-86">
          <mxGeometry relative="1" as="geometry">
            <mxPoint x="470" y="330" as="sourcePoint" />
            <mxPoint x="630" y="330" as="targetPoint" />
            <Array as="points">
              <mxPoint x="710" y="290" />
            </Array>
          </mxGeometry>
        </mxCell>
        <mxCell id="7H_N8t5FlbTLg9l8uyXJ-112" value="Id" style="ellipse;whiteSpace=wrap;html=1;align=center;fontStyle=4;" vertex="1" parent="1">
          <mxGeometry x="240" y="280" width="100" height="40" as="geometry" />
        </mxCell>
        <mxCell id="7H_N8t5FlbTLg9l8uyXJ-113" value="" style="endArrow=none;html=1;rounded=0;entryX=0;entryY=0.5;entryDx=0;entryDy=0;exitX=1;exitY=0.5;exitDx=0;exitDy=0;edgeStyle=orthogonalEdgeStyle;" edge="1" parent="1" source="7H_N8t5FlbTLg9l8uyXJ-112" target="7H_N8t5FlbTLg9l8uyXJ-61">
          <mxGeometry relative="1" as="geometry">
            <mxPoint x="250" y="330" as="sourcePoint" />
            <mxPoint x="410" y="330" as="targetPoint" />
          </mxGeometry>
        </mxCell>
        <mxCell id="7H_N8t5FlbTLg9l8uyXJ-114" value="" style="endArrow=none;html=1;rounded=0;entryX=0.5;entryY=1;entryDx=0;entryDy=0;exitX=1;exitY=0;exitDx=0;exitDy=0;edgeStyle=orthogonalEdgeStyle;" edge="1" parent="1" source="7H_N8t5FlbTLg9l8uyXJ-61" target="7H_N8t5FlbTLg9l8uyXJ-84">
          <mxGeometry relative="1" as="geometry">
            <mxPoint x="500" y="330" as="sourcePoint" />
            <mxPoint x="660" y="330" as="targetPoint" />
          </mxGeometry>
        </mxCell>
        <mxCell id="7H_N8t5FlbTLg9l8uyXJ-115" value="Ship_price" style="ellipse;whiteSpace=wrap;html=1;align=center;" vertex="1" parent="1">
          <mxGeometry x="550" y="440" width="100" height="40" as="geometry" />
        </mxCell>
        <mxCell id="7H_N8t5FlbTLg9l8uyXJ-116" value="Admin_id" style="ellipse;whiteSpace=wrap;html=1;align=center;" vertex="1" parent="1">
          <mxGeometry x="240" y="330" width="100" height="40" as="geometry" />
        </mxCell>
        <mxCell id="7H_N8t5FlbTLg9l8uyXJ-118" value="User_id" style="ellipse;whiteSpace=wrap;html=1;align=center;" vertex="1" parent="1">
          <mxGeometry x="610" y="380" width="100" height="40" as="geometry" />
        </mxCell>
        <mxCell id="7H_N8t5FlbTLg9l8uyXJ-119" value="" style="endArrow=none;html=1;rounded=0;exitX=0.75;exitY=1;exitDx=0;exitDy=0;entryX=0.5;entryY=0;entryDx=0;entryDy=0;edgeStyle=orthogonalEdgeStyle;" edge="1" parent="1" source="7H_N8t5FlbTLg9l8uyXJ-61" target="7H_N8t5FlbTLg9l8uyXJ-115">
          <mxGeometry relative="1" as="geometry">
            <mxPoint x="500" y="330" as="sourcePoint" />
            <mxPoint x="660" y="330" as="targetPoint" />
            <Array as="points">
              <mxPoint x="535" y="440" />
            </Array>
          </mxGeometry>
        </mxCell>
        <mxCell id="7H_N8t5FlbTLg9l8uyXJ-120" value="" style="endArrow=none;html=1;rounded=0;exitX=1;exitY=1;exitDx=0;exitDy=0;entryX=0;entryY=0;entryDx=0;entryDy=0;edgeStyle=orthogonalEdgeStyle;" edge="1" parent="1" source="7H_N8t5FlbTLg9l8uyXJ-61" target="7H_N8t5FlbTLg9l8uyXJ-118">
          <mxGeometry relative="1" as="geometry">
            <mxPoint x="500" y="330" as="sourcePoint" />
            <mxPoint x="660" y="330" as="targetPoint" />
            <Array as="points">
              <mxPoint x="560" y="380" />
              <mxPoint x="625" y="380" />
            </Array>
          </mxGeometry>
        </mxCell>
        <mxCell id="7H_N8t5FlbTLg9l8uyXJ-121" value="" style="endArrow=none;html=1;rounded=0;entryX=0;entryY=1;entryDx=0;entryDy=0;exitX=1;exitY=0.5;exitDx=0;exitDy=0;edgeStyle=orthogonalEdgeStyle;" edge="1" parent="1" source="7H_N8t5FlbTLg9l8uyXJ-116" target="7H_N8t5FlbTLg9l8uyXJ-61">
          <mxGeometry relative="1" as="geometry">
            <mxPoint x="350" y="290" as="sourcePoint" />
            <mxPoint x="470" y="290" as="targetPoint" />
            <Array as="points">
              <mxPoint x="360" y="320" />
              <mxPoint x="460" y="320" />
            </Array>
          </mxGeometry>
        </mxCell>
        <mxCell id="7H_N8t5FlbTLg9l8uyXJ-124" value="" style="endArrow=none;html=1;rounded=0;entryX=0.25;entryY=1;entryDx=0;entryDy=0;exitX=1;exitY=0.5;exitDx=0;exitDy=0;edgeStyle=orthogonalEdgeStyle;" edge="1" parent="1" source="7H_N8t5FlbTLg9l8uyXJ-127" target="7H_N8t5FlbTLg9l8uyXJ-61">
          <mxGeometry relative="1" as="geometry">
            <mxPoint x="320" y="330" as="sourcePoint" />
            <mxPoint x="480" y="330" as="targetPoint" />
          </mxGeometry>
        </mxCell>
        <mxCell id="7H_N8t5FlbTLg9l8uyXJ-127" value="Create_at" style="ellipse;whiteSpace=wrap;html=1;align=center;dashed=1;" vertex="1" parent="1">
          <mxGeometry x="240" y="380" width="100" height="40" as="geometry" />
        </mxCell>
        <mxCell id="7H_N8t5FlbTLg9l8uyXJ-130" value="Amount" style="ellipse;whiteSpace=wrap;html=1;align=center;" vertex="1" parent="1">
          <mxGeometry x="470" y="560" width="100" height="40" as="geometry" />
        </mxCell>
        <mxCell id="7H_N8t5FlbTLg9l8uyXJ-131" value="Price" style="ellipse;whiteSpace=wrap;html=1;align=center;" vertex="1" parent="1">
          <mxGeometry x="200" y="720" width="100" height="40" as="geometry" />
        </mxCell>
        <mxCell id="7H_N8t5FlbTLg9l8uyXJ-132" value="" style="endArrow=none;html=1;rounded=0;entryX=0.5;entryY=1;entryDx=0;entryDy=0;exitX=1;exitY=0.5;exitDx=0;exitDy=0;edgeStyle=orthogonalEdgeStyle;" edge="1" parent="1" source="7H_N8t5FlbTLg9l8uyXJ-39" target="7H_N8t5FlbTLg9l8uyXJ-130">
          <mxGeometry relative="1" as="geometry">
            <mxPoint x="250" y="630" as="sourcePoint" />
            <mxPoint x="410" y="630" as="targetPoint" />
            <Array as="points">
              <mxPoint x="450" y="640" />
              <mxPoint x="520" y="640" />
            </Array>
          </mxGeometry>
        </mxCell>
        <mxCell id="7H_N8t5FlbTLg9l8uyXJ-133" value="" style="endArrow=none;html=1;rounded=0;entryX=0.5;entryY=0;entryDx=0;entryDy=0;exitX=0;exitY=1;exitDx=0;exitDy=0;edgeStyle=orthogonalEdgeStyle;" edge="1" parent="1" source="7H_N8t5FlbTLg9l8uyXJ-39" target="7H_N8t5FlbTLg9l8uyXJ-131">
          <mxGeometry relative="1" as="geometry">
            <mxPoint x="460" y="670" as="sourcePoint" />
            <mxPoint x="530" y="610" as="targetPoint" />
            <Array as="points">
              <mxPoint x="250" y="680" />
            </Array>
          </mxGeometry>
        </mxCell>
        <mxCell id="7H_N8t5FlbTLg9l8uyXJ-134" value="Create_at" style="ellipse;whiteSpace=wrap;html=1;align=center;dashed=1;" vertex="1" parent="1">
          <mxGeometry x="170" y="930" width="100" height="40" as="geometry" />
        </mxCell>
        <mxCell id="7H_N8t5FlbTLg9l8uyXJ-136" value="Image" style="ellipse;whiteSpace=wrap;html=1;align=center;" vertex="1" parent="1">
          <mxGeometry x="230" y="990" width="100" height="40" as="geometry" />
        </mxCell>
        <mxCell id="7H_N8t5FlbTLg9l8uyXJ-137" value="Price" style="ellipse;whiteSpace=wrap;html=1;align=center;" vertex="1" parent="1">
          <mxGeometry x="470" y="880" width="100" height="40" as="geometry" />
        </mxCell>
        <mxCell id="7H_N8t5FlbTLg9l8uyXJ-138" value="Name" style="ellipse;whiteSpace=wrap;html=1;align=center;" vertex="1" parent="1">
          <mxGeometry x="170" y="880" width="100" height="40" as="geometry" />
        </mxCell>
        <mxCell id="7H_N8t5FlbTLg9l8uyXJ-139" value="Description" style="ellipse;whiteSpace=wrap;html=1;align=center;" vertex="1" parent="1">
          <mxGeometry x="440" y="1000" width="100" height="40" as="geometry" />
        </mxCell>
        <mxCell id="7H_N8t5FlbTLg9l8uyXJ-140" value="" style="endArrow=none;html=1;rounded=0;exitX=1;exitY=0.5;exitDx=0;exitDy=0;entryX=0;entryY=0.25;entryDx=0;entryDy=0;edgeStyle=orthogonalEdgeStyle;" edge="1" parent="1" source="7H_N8t5FlbTLg9l8uyXJ-138" target="7H_N8t5FlbTLg9l8uyXJ-62">
          <mxGeometry relative="1" as="geometry">
            <mxPoint x="260" y="730" as="sourcePoint" />
            <mxPoint x="420" y="730" as="targetPoint" />
          </mxGeometry>
        </mxCell>
        <mxCell id="7H_N8t5FlbTLg9l8uyXJ-141" value="" style="endArrow=none;html=1;rounded=0;exitX=1;exitY=0.5;exitDx=0;exitDy=0;entryX=0;entryY=0.5;entryDx=0;entryDy=0;edgeStyle=orthogonalEdgeStyle;" edge="1" parent="1" source="7H_N8t5FlbTLg9l8uyXJ-134" target="7H_N8t5FlbTLg9l8uyXJ-62">
          <mxGeometry relative="1" as="geometry">
            <mxPoint x="280" y="910" as="sourcePoint" />
            <mxPoint x="345" y="920" as="targetPoint" />
          </mxGeometry>
        </mxCell>
        <mxCell id="7H_N8t5FlbTLg9l8uyXJ-142" value="" style="endArrow=none;html=1;rounded=0;exitX=0.5;exitY=0;exitDx=0;exitDy=0;entryX=0.25;entryY=1;entryDx=0;entryDy=0;edgeStyle=orthogonalEdgeStyle;" edge="1" parent="1" source="7H_N8t5FlbTLg9l8uyXJ-136" target="7H_N8t5FlbTLg9l8uyXJ-62">
          <mxGeometry relative="1" as="geometry">
            <mxPoint x="280" y="910" as="sourcePoint" />
            <mxPoint x="345" y="920" as="targetPoint" />
          </mxGeometry>
        </mxCell>
        <mxCell id="7H_N8t5FlbTLg9l8uyXJ-143" value="" style="endArrow=none;html=1;rounded=0;exitX=0.5;exitY=0;exitDx=0;exitDy=0;entryX=0.75;entryY=1;entryDx=0;entryDy=0;edgeStyle=orthogonalEdgeStyle;" edge="1" parent="1" source="7H_N8t5FlbTLg9l8uyXJ-139" target="7H_N8t5FlbTLg9l8uyXJ-62">
          <mxGeometry relative="1" as="geometry">
            <mxPoint x="350" y="1000" as="sourcePoint" />
            <mxPoint x="370" y="950" as="targetPoint" />
          </mxGeometry>
        </mxCell>
        <mxCell id="7H_N8t5FlbTLg9l8uyXJ-144" value="Id" style="ellipse;whiteSpace=wrap;html=1;align=center;fontStyle=4;" vertex="1" parent="1">
          <mxGeometry x="490" y="940" width="100" height="40" as="geometry" />
        </mxCell>
        <mxCell id="7H_N8t5FlbTLg9l8uyXJ-145" value="" style="endArrow=none;html=1;rounded=0;exitX=0;exitY=0.5;exitDx=0;exitDy=0;entryX=1;entryY=0;entryDx=0;entryDy=0;edgeStyle=orthogonalEdgeStyle;" edge="1" parent="1" source="7H_N8t5FlbTLg9l8uyXJ-137" target="7H_N8t5FlbTLg9l8uyXJ-62">
          <mxGeometry relative="1" as="geometry">
            <mxPoint x="460" y="1000" as="sourcePoint" />
            <mxPoint x="420" y="950" as="targetPoint" />
            <Array as="points">
              <mxPoint x="440" y="900" />
              <mxPoint x="440" y="900" />
            </Array>
          </mxGeometry>
        </mxCell>
        <mxCell id="7H_N8t5FlbTLg9l8uyXJ-146" value="" style="endArrow=none;html=1;rounded=0;edgeStyle=orthogonalEdgeStyle;exitX=0;exitY=0.5;exitDx=0;exitDy=0;" edge="1" parent="1" source="7H_N8t5FlbTLg9l8uyXJ-144">
          <mxGeometry relative="1" as="geometry">
            <mxPoint x="480" y="960" as="sourcePoint" />
            <mxPoint x="435" y="930" as="targetPoint" />
            <Array as="points">
              <mxPoint x="450" y="960" />
              <mxPoint x="450" y="930" />
            </Array>
          </mxGeometry>
        </mxCell>
        <mxCell id="7H_N8t5FlbTLg9l8uyXJ-148" value="Got From&amp;nbsp;" style="shape=rhombus;double=1;perimeter=rhombusPerimeter;whiteSpace=wrap;html=1;align=center;" vertex="1" parent="1">
          <mxGeometry x="325" y="1030" width="120" height="60" as="geometry" />
        </mxCell>
        <mxCell id="7H_N8t5FlbTLg9l8uyXJ-149" value="" style="endArrow=none;html=1;rounded=0;exitX=0.5;exitY=1;exitDx=0;exitDy=0;entryX=0.5;entryY=0;entryDx=0;entryDy=0;" edge="1" parent="1" source="7H_N8t5FlbTLg9l8uyXJ-62" target="7H_N8t5FlbTLg9l8uyXJ-148">
          <mxGeometry relative="1" as="geometry">
            <mxPoint x="270" y="830" as="sourcePoint" />
            <mxPoint x="420" y="1020" as="targetPoint" />
          </mxGeometry>
        </mxCell>
        <mxCell id="7H_N8t5FlbTLg9l8uyXJ-150" value="1" style="resizable=0;html=1;whiteSpace=wrap;align=right;verticalAlign=bottom;" connectable="0" vertex="1" parent="7H_N8t5FlbTLg9l8uyXJ-149">
          <mxGeometry x="1" relative="1" as="geometry" />
        </mxCell>
        <mxCell id="7H_N8t5FlbTLg9l8uyXJ-151" value="" style="shape=link;html=1;rounded=0;exitX=0.5;exitY=1;exitDx=0;exitDy=0;width=-5;entryX=0.5;entryY=0;entryDx=0;entryDy=0;" edge="1" parent="1" source="7H_N8t5FlbTLg9l8uyXJ-148" target="7H_N8t5FlbTLg9l8uyXJ-154">
          <mxGeometry relative="1" as="geometry">
            <mxPoint x="270" y="1130" as="sourcePoint" />
            <mxPoint x="390" y="1170" as="targetPoint" />
          </mxGeometry>
        </mxCell>
        <mxCell id="7H_N8t5FlbTLg9l8uyXJ-152" value="N" style="resizable=0;html=1;whiteSpace=wrap;align=right;verticalAlign=bottom;" connectable="0" vertex="1" parent="7H_N8t5FlbTLg9l8uyXJ-151">
          <mxGeometry x="1" relative="1" as="geometry" />
        </mxCell>
        <mxCell id="7H_N8t5FlbTLg9l8uyXJ-154" value="Import_product" style="shape=ext;margin=3;double=1;whiteSpace=wrap;html=1;align=center;" vertex="1" parent="1">
          <mxGeometry x="320" y="1190" width="130" height="40" as="geometry" />
        </mxCell>
        <mxCell id="7H_N8t5FlbTLg9l8uyXJ-155" value="Amount" style="ellipse;whiteSpace=wrap;html=1;align=center;" vertex="1" parent="1">
          <mxGeometry x="470" y="1100" width="100" height="40" as="geometry" />
        </mxCell>
        <mxCell id="7H_N8t5FlbTLg9l8uyXJ-156" value="Price" style="ellipse;whiteSpace=wrap;html=1;align=center;" vertex="1" parent="1">
          <mxGeometry x="180" y="1260" width="100" height="40" as="geometry" />
        </mxCell>
        <mxCell id="7H_N8t5FlbTLg9l8uyXJ-157" value="" style="endArrow=none;html=1;rounded=0;exitX=0.5;exitY=0;exitDx=0;exitDy=0;entryX=0;entryY=0.5;entryDx=0;entryDy=0;edgeStyle=orthogonalEdgeStyle;" edge="1" parent="1" source="7H_N8t5FlbTLg9l8uyXJ-156" target="7H_N8t5FlbTLg9l8uyXJ-154">
          <mxGeometry relative="1" as="geometry">
            <mxPoint x="270" y="930" as="sourcePoint" />
            <mxPoint x="430" y="930" as="targetPoint" />
          </mxGeometry>
        </mxCell>
        <mxCell id="7H_N8t5FlbTLg9l8uyXJ-158" value="" style="endArrow=none;html=1;rounded=0;exitX=1;exitY=0.5;exitDx=0;exitDy=0;entryX=0.5;entryY=1;entryDx=0;entryDy=0;edgeStyle=orthogonalEdgeStyle;" edge="1" parent="1" source="7H_N8t5FlbTLg9l8uyXJ-154" target="7H_N8t5FlbTLg9l8uyXJ-155">
          <mxGeometry relative="1" as="geometry">
            <mxPoint x="260" y="1270" as="sourcePoint" />
            <mxPoint x="330" y="1220" as="targetPoint" />
          </mxGeometry>
        </mxCell>
        <mxCell id="7H_N8t5FlbTLg9l8uyXJ-159" value="Deliver By" style="shape=rhombus;double=1;perimeter=rhombusPerimeter;whiteSpace=wrap;html=1;align=center;" vertex="1" parent="1">
          <mxGeometry x="325" y="1340" width="120" height="60" as="geometry" />
        </mxCell>
        <mxCell id="7H_N8t5FlbTLg9l8uyXJ-160" value="" style="shape=link;html=1;rounded=0;exitX=0.5;exitY=1;exitDx=0;exitDy=0;width=6;entryX=0.5;entryY=0;entryDx=0;entryDy=0;" edge="1" parent="1" source="7H_N8t5FlbTLg9l8uyXJ-154" target="7H_N8t5FlbTLg9l8uyXJ-159">
          <mxGeometry relative="1" as="geometry">
            <mxPoint x="395" y="1100" as="sourcePoint" />
            <mxPoint x="395" y="1200" as="targetPoint" />
          </mxGeometry>
        </mxCell>
        <mxCell id="7H_N8t5FlbTLg9l8uyXJ-161" value="N" style="resizable=0;html=1;whiteSpace=wrap;align=right;verticalAlign=bottom;" connectable="0" vertex="1" parent="7H_N8t5FlbTLg9l8uyXJ-160">
          <mxGeometry x="1" relative="1" as="geometry" />
        </mxCell>
        <mxCell id="7H_N8t5FlbTLg9l8uyXJ-162" value="imports" style="rounded=1;arcSize=10;whiteSpace=wrap;html=1;align=center;" vertex="1" parent="1">
          <mxGeometry x="335" y="1480" width="100" height="40" as="geometry" />
        </mxCell>
        <mxCell id="7H_N8t5FlbTLg9l8uyXJ-166" value="" style="endArrow=none;html=1;rounded=0;exitX=0.5;exitY=1;exitDx=0;exitDy=0;entryX=0.5;entryY=0;entryDx=0;entryDy=0;" edge="1" parent="1" source="7H_N8t5FlbTLg9l8uyXJ-159" target="7H_N8t5FlbTLg9l8uyXJ-162">
          <mxGeometry relative="1" as="geometry">
            <mxPoint x="460" y="1410" as="sourcePoint" />
            <mxPoint x="460" y="1500" as="targetPoint" />
          </mxGeometry>
        </mxCell>
        <mxCell id="7H_N8t5FlbTLg9l8uyXJ-167" value="1" style="resizable=0;html=1;whiteSpace=wrap;align=right;verticalAlign=bottom;" connectable="0" vertex="1" parent="7H_N8t5FlbTLg9l8uyXJ-166">
          <mxGeometry x="1" relative="1" as="geometry" />
        </mxCell>
        <mxCell id="7H_N8t5FlbTLg9l8uyXJ-168" value="Create_at" style="ellipse;whiteSpace=wrap;html=1;align=center;dashed=1;" vertex="1" parent="1">
          <mxGeometry x="160" y="1550" width="100" height="40" as="geometry" />
        </mxCell>
        <mxCell id="7H_N8t5FlbTLg9l8uyXJ-169" value="Ship_price" style="ellipse;whiteSpace=wrap;html=1;align=center;" vertex="1" parent="1">
          <mxGeometry x="480" y="1430" width="100" height="40" as="geometry" />
        </mxCell>
        <mxCell id="7H_N8t5FlbTLg9l8uyXJ-170" value="Product_price" style="ellipse;whiteSpace=wrap;html=1;align=center;" vertex="1" parent="1">
          <mxGeometry x="160" y="1430" width="100" height="40" as="geometry" />
        </mxCell>
        <mxCell id="7H_N8t5FlbTLg9l8uyXJ-173" value="" style="endArrow=none;html=1;rounded=0;exitX=1;exitY=0.5;exitDx=0;exitDy=0;entryX=0;entryY=0;entryDx=0;entryDy=0;edgeStyle=orthogonalEdgeStyle;" edge="1" parent="1" source="7H_N8t5FlbTLg9l8uyXJ-170" target="7H_N8t5FlbTLg9l8uyXJ-162">
          <mxGeometry relative="1" as="geometry">
            <mxPoint x="270" y="1430" as="sourcePoint" />
            <mxPoint x="430" y="1430" as="targetPoint" />
          </mxGeometry>
        </mxCell>
        <mxCell id="7H_N8t5FlbTLg9l8uyXJ-174" value="" style="endArrow=none;html=1;rounded=0;exitX=1;exitY=0.5;exitDx=0;exitDy=0;entryX=0;entryY=1;entryDx=0;entryDy=0;edgeStyle=orthogonalEdgeStyle;" edge="1" parent="1" source="7H_N8t5FlbTLg9l8uyXJ-168" target="7H_N8t5FlbTLg9l8uyXJ-162">
          <mxGeometry relative="1" as="geometry">
            <mxPoint x="270" y="1460" as="sourcePoint" />
            <mxPoint x="345" y="1490" as="targetPoint" />
          </mxGeometry>
        </mxCell>
        <mxCell id="7H_N8t5FlbTLg9l8uyXJ-175" value="" style="endArrow=none;html=1;rounded=0;exitX=0;exitY=0.5;exitDx=0;exitDy=0;entryX=1;entryY=0;entryDx=0;entryDy=0;edgeStyle=orthogonalEdgeStyle;" edge="1" parent="1" source="7H_N8t5FlbTLg9l8uyXJ-169" target="7H_N8t5FlbTLg9l8uyXJ-162">
          <mxGeometry relative="1" as="geometry">
            <mxPoint x="270" y="1460" as="sourcePoint" />
            <mxPoint x="345" y="1490" as="targetPoint" />
          </mxGeometry>
        </mxCell>
        <mxCell id="7H_N8t5FlbTLg9l8uyXJ-176" value="Admin" style="rounded=1;arcSize=10;whiteSpace=wrap;html=1;align=center;" vertex="1" parent="1">
          <mxGeometry x="-100" y="1100" width="100" height="40" as="geometry" />
        </mxCell>
        <mxCell id="7H_N8t5FlbTLg9l8uyXJ-177" value="Manage&amp;nbsp;" style="shape=rhombus;perimeter=rhombusPerimeter;whiteSpace=wrap;html=1;align=center;" vertex="1" parent="1">
          <mxGeometry x="90" y="1090" width="120" height="60" as="geometry" />
        </mxCell>
        <mxCell id="7H_N8t5FlbTLg9l8uyXJ-183" value="" style="endArrow=none;html=1;rounded=0;exitX=1;exitY=0.5;exitDx=0;exitDy=0;entryX=0;entryY=0.5;entryDx=0;entryDy=0;" edge="1" parent="1" source="7H_N8t5FlbTLg9l8uyXJ-176" target="7H_N8t5FlbTLg9l8uyXJ-177">
          <mxGeometry relative="1" as="geometry">
            <mxPoint x="100" y="930" as="sourcePoint" />
            <mxPoint x="260" y="930" as="targetPoint" />
          </mxGeometry>
        </mxCell>
        <mxCell id="7H_N8t5FlbTLg9l8uyXJ-184" value="1" style="resizable=0;html=1;whiteSpace=wrap;align=right;verticalAlign=bottom;" connectable="0" vertex="1" parent="7H_N8t5FlbTLg9l8uyXJ-183">
          <mxGeometry x="1" relative="1" as="geometry" />
        </mxCell>
        <mxCell id="7H_N8t5FlbTLg9l8uyXJ-187" value="" style="shape=link;html=1;rounded=0;entryX=0;entryY=0;entryDx=0;entryDy=0;exitX=1;exitY=0.5;exitDx=0;exitDy=0;edgeStyle=orthogonalEdgeStyle;" edge="1" parent="1" source="7H_N8t5FlbTLg9l8uyXJ-177" target="7H_N8t5FlbTLg9l8uyXJ-154">
          <mxGeometry relative="1" as="geometry">
            <mxPoint x="150" y="830" as="sourcePoint" />
            <mxPoint x="310" y="830" as="targetPoint" />
          </mxGeometry>
        </mxCell>
        <mxCell id="7H_N8t5FlbTLg9l8uyXJ-188" value="N" style="resizable=0;html=1;whiteSpace=wrap;align=right;verticalAlign=bottom;" connectable="0" vertex="1" parent="7H_N8t5FlbTLg9l8uyXJ-187">
          <mxGeometry x="1" relative="1" as="geometry" />
        </mxCell>
        <mxCell id="7H_N8t5FlbTLg9l8uyXJ-189" value="Id" style="ellipse;whiteSpace=wrap;html=1;align=center;fontStyle=4;" vertex="1" parent="1">
          <mxGeometry x="-230" y="1050" width="100" height="40" as="geometry" />
        </mxCell>
        <mxCell id="7H_N8t5FlbTLg9l8uyXJ-194" value="Role" style="ellipse;whiteSpace=wrap;html=1;align=center;" vertex="1" parent="1">
          <mxGeometry x="30" y="1040" width="100" height="40" as="geometry" />
        </mxCell>
        <mxCell id="7H_N8t5FlbTLg9l8uyXJ-195" value="Password" style="ellipse;whiteSpace=wrap;html=1;align=center;" vertex="1" parent="1">
          <mxGeometry x="-230" y="1180" width="100" height="40" as="geometry" />
        </mxCell>
        <mxCell id="7H_N8t5FlbTLg9l8uyXJ-196" value="Email" style="ellipse;whiteSpace=wrap;html=1;align=center;" vertex="1" parent="1">
          <mxGeometry x="30" y="1170" width="100" height="40" as="geometry" />
        </mxCell>
        <mxCell id="7H_N8t5FlbTLg9l8uyXJ-197" value="Name" style="ellipse;whiteSpace=wrap;html=1;align=center;" vertex="1" parent="1">
          <mxGeometry x="-100" y="1210" width="100" height="40" as="geometry" />
        </mxCell>
        <mxCell id="7H_N8t5FlbTLg9l8uyXJ-199" value="Created_at" style="ellipse;whiteSpace=wrap;html=1;align=center;dashed=1;" vertex="1" parent="1">
          <mxGeometry x="-100" y="1000" width="100" height="40" as="geometry" />
        </mxCell>
        <mxCell id="7H_N8t5FlbTLg9l8uyXJ-201" value="" style="endArrow=none;html=1;rounded=0;exitX=0.5;exitY=1;exitDx=0;exitDy=0;entryX=0.5;entryY=0;entryDx=0;entryDy=0;" edge="1" parent="1" source="7H_N8t5FlbTLg9l8uyXJ-199" target="7H_N8t5FlbTLg9l8uyXJ-176">
          <mxGeometry relative="1" as="geometry">
            <mxPoint x="-100" y="1000" as="sourcePoint" />
            <mxPoint x="60" y="1000" as="targetPoint" />
          </mxGeometry>
        </mxCell>
        <mxCell id="7H_N8t5FlbTLg9l8uyXJ-202" value="" style="endArrow=none;html=1;rounded=0;exitX=0;exitY=0.5;exitDx=0;exitDy=0;entryX=1;entryY=0;entryDx=0;entryDy=0;" edge="1" parent="1" source="7H_N8t5FlbTLg9l8uyXJ-194" target="7H_N8t5FlbTLg9l8uyXJ-176">
          <mxGeometry relative="1" as="geometry">
            <mxPoint x="-40" y="1050" as="sourcePoint" />
            <mxPoint x="-40" y="1110" as="targetPoint" />
          </mxGeometry>
        </mxCell>
        <mxCell id="7H_N8t5FlbTLg9l8uyXJ-203" value="" style="endArrow=none;html=1;rounded=0;exitX=1;exitY=0.5;exitDx=0;exitDy=0;entryX=0;entryY=0;entryDx=0;entryDy=0;" edge="1" parent="1" source="7H_N8t5FlbTLg9l8uyXJ-189" target="7H_N8t5FlbTLg9l8uyXJ-176">
          <mxGeometry relative="1" as="geometry">
            <mxPoint x="40" y="1070" as="sourcePoint" />
            <mxPoint x="10" y="1110" as="targetPoint" />
          </mxGeometry>
        </mxCell>
        <mxCell id="7H_N8t5FlbTLg9l8uyXJ-204" value="" style="endArrow=none;html=1;rounded=0;exitX=1;exitY=0.5;exitDx=0;exitDy=0;" edge="1" parent="1" source="7H_N8t5FlbTLg9l8uyXJ-195">
          <mxGeometry relative="1" as="geometry">
            <mxPoint x="-120" y="1080" as="sourcePoint" />
            <mxPoint x="-100" y="1140" as="targetPoint" />
          </mxGeometry>
        </mxCell>
        <mxCell id="7H_N8t5FlbTLg9l8uyXJ-205" value="" style="endArrow=none;html=1;rounded=0;exitX=0.5;exitY=0;exitDx=0;exitDy=0;entryX=0.5;entryY=1;entryDx=0;entryDy=0;" edge="1" parent="1" source="7H_N8t5FlbTLg9l8uyXJ-197" target="7H_N8t5FlbTLg9l8uyXJ-176">
          <mxGeometry relative="1" as="geometry">
            <mxPoint x="-120" y="1210" as="sourcePoint" />
            <mxPoint x="-90" y="1150" as="targetPoint" />
          </mxGeometry>
        </mxCell>
        <mxCell id="7H_N8t5FlbTLg9l8uyXJ-206" value="" style="endArrow=none;html=1;rounded=0;exitX=0;exitY=0.5;exitDx=0;exitDy=0;entryX=1;entryY=1;entryDx=0;entryDy=0;" edge="1" parent="1" source="7H_N8t5FlbTLg9l8uyXJ-196" target="7H_N8t5FlbTLg9l8uyXJ-176">
          <mxGeometry relative="1" as="geometry">
            <mxPoint x="-40" y="1220" as="sourcePoint" />
            <mxPoint x="-40" y="1150" as="targetPoint" />
          </mxGeometry>
        </mxCell>
        <mxCell id="7H_N8t5FlbTLg9l8uyXJ-207" value="Discounts" style="rounded=1;arcSize=10;whiteSpace=wrap;html=1;align=center;" vertex="1" parent="1">
          <mxGeometry x="-90" y="640" width="100" height="40" as="geometry" />
        </mxCell>
        <mxCell id="7H_N8t5FlbTLg9l8uyXJ-209" value="apply" style="shape=rhombus;perimeter=rhombusPerimeter;whiteSpace=wrap;html=1;align=center;" vertex="1" parent="1">
          <mxGeometry x="80" y="630" width="120" height="60" as="geometry" />
        </mxCell>
        <mxCell id="7H_N8t5FlbTLg9l8uyXJ-210" value="" style="endArrow=none;html=1;rounded=0;entryX=0;entryY=0.5;entryDx=0;entryDy=0;exitX=1;exitY=0.5;exitDx=0;exitDy=0;" edge="1" parent="1" source="7H_N8t5FlbTLg9l8uyXJ-207" target="7H_N8t5FlbTLg9l8uyXJ-209">
          <mxGeometry relative="1" as="geometry">
            <mxPoint x="-20" y="600" as="sourcePoint" />
            <mxPoint x="140" y="600" as="targetPoint" />
          </mxGeometry>
        </mxCell>
        <mxCell id="7H_N8t5FlbTLg9l8uyXJ-211" value="1" style="resizable=0;html=1;whiteSpace=wrap;align=right;verticalAlign=bottom;" connectable="0" vertex="1" parent="7H_N8t5FlbTLg9l8uyXJ-210">
          <mxGeometry x="1" relative="1" as="geometry" />
        </mxCell>
        <mxCell id="7H_N8t5FlbTLg9l8uyXJ-212" value="" style="endArrow=none;html=1;rounded=0;entryX=1;entryY=0.5;entryDx=0;entryDy=0;exitX=0;exitY=0.5;exitDx=0;exitDy=0;" edge="1" parent="1" source="7H_N8t5FlbTLg9l8uyXJ-39" target="7H_N8t5FlbTLg9l8uyXJ-209">
          <mxGeometry relative="1" as="geometry">
            <mxPoint x="20" y="670" as="sourcePoint" />
            <mxPoint x="90" y="670" as="targetPoint" />
          </mxGeometry>
        </mxCell>
        <mxCell id="7H_N8t5FlbTLg9l8uyXJ-213" value="1" style="resizable=0;html=1;whiteSpace=wrap;align=right;verticalAlign=bottom;" connectable="0" vertex="1" parent="7H_N8t5FlbTLg9l8uyXJ-212">
          <mxGeometry x="1" relative="1" as="geometry" />
        </mxCell>
        <mxCell id="7H_N8t5FlbTLg9l8uyXJ-214" value="Need_amount" style="ellipse;whiteSpace=wrap;html=1;align=center;" vertex="1" parent="1">
          <mxGeometry x="-230" y="740" width="100" height="40" as="geometry" />
        </mxCell>
        <mxCell id="7H_N8t5FlbTLg9l8uyXJ-216" value="Percent" style="ellipse;whiteSpace=wrap;html=1;align=center;" vertex="1" parent="1">
          <mxGeometry x="-230" y="560" width="100" height="40" as="geometry" />
        </mxCell>
        <mxCell id="7H_N8t5FlbTLg9l8uyXJ-217" value="Product_id" style="ellipse;whiteSpace=wrap;html=1;align=center;" vertex="1" parent="1">
          <mxGeometry x="-270" y="640" width="100" height="40" as="geometry" />
        </mxCell>
        <mxCell id="7H_N8t5FlbTLg9l8uyXJ-218" value="Id" style="ellipse;whiteSpace=wrap;html=1;align=center;fontStyle=4;" vertex="1" parent="1">
          <mxGeometry x="20" y="560" width="100" height="40" as="geometry" />
        </mxCell>
        <mxCell id="7H_N8t5FlbTLg9l8uyXJ-219" value="" style="endArrow=none;html=1;rounded=0;exitX=1;exitY=0.5;exitDx=0;exitDy=0;entryX=0;entryY=0;entryDx=0;entryDy=0;" edge="1" parent="1" source="7H_N8t5FlbTLg9l8uyXJ-216" target="7H_N8t5FlbTLg9l8uyXJ-207">
          <mxGeometry relative="1" as="geometry">
            <mxPoint x="-150" y="600" as="sourcePoint" />
            <mxPoint x="10" y="600" as="targetPoint" />
          </mxGeometry>
        </mxCell>
        <mxCell id="7H_N8t5FlbTLg9l8uyXJ-220" value="" style="endArrow=none;html=1;rounded=0;exitX=0;exitY=0.5;exitDx=0;exitDy=0;entryX=1;entryY=0;entryDx=0;entryDy=0;" edge="1" parent="1" source="7H_N8t5FlbTLg9l8uyXJ-218" target="7H_N8t5FlbTLg9l8uyXJ-207">
          <mxGeometry relative="1" as="geometry">
            <mxPoint x="-70" y="590" as="sourcePoint" />
            <mxPoint x="-55" y="650" as="targetPoint" />
          </mxGeometry>
        </mxCell>
        <mxCell id="7H_N8t5FlbTLg9l8uyXJ-221" value="" style="endArrow=none;html=1;rounded=0;exitX=1;exitY=0.5;exitDx=0;exitDy=0;entryX=0;entryY=0.5;entryDx=0;entryDy=0;" edge="1" parent="1" source="7H_N8t5FlbTLg9l8uyXJ-217" target="7H_N8t5FlbTLg9l8uyXJ-207">
          <mxGeometry relative="1" as="geometry">
            <mxPoint x="30" y="590" as="sourcePoint" />
            <mxPoint x="20" y="650" as="targetPoint" />
          </mxGeometry>
        </mxCell>
        <mxCell id="7H_N8t5FlbTLg9l8uyXJ-222" value="" style="endArrow=none;html=1;rounded=0;exitX=0.5;exitY=0;exitDx=0;exitDy=0;entryX=0;entryY=1;entryDx=0;entryDy=0;" edge="1" parent="1" source="7H_N8t5FlbTLg9l8uyXJ-214" target="7H_N8t5FlbTLg9l8uyXJ-207">
          <mxGeometry relative="1" as="geometry">
            <mxPoint x="-160" y="670" as="sourcePoint" />
            <mxPoint x="-80" y="670" as="targetPoint" />
          </mxGeometry>
        </mxCell>
        <mxCell id="7H_N8t5FlbTLg9l8uyXJ-223" value="Category" style="ellipse;shape=doubleEllipse;margin=3;whiteSpace=wrap;html=1;align=center;" vertex="1" parent="1">
          <mxGeometry x="400" y="820" width="100" height="40" as="geometry" />
        </mxCell>
        <mxCell id="7H_N8t5FlbTLg9l8uyXJ-224" value="" style="endArrow=none;html=1;rounded=0;exitX=0.5;exitY=1;exitDx=0;exitDy=0;entryX=0.75;entryY=0;entryDx=0;entryDy=0;edgeStyle=orthogonalEdgeStyle;" edge="1" parent="1" source="7H_N8t5FlbTLg9l8uyXJ-223" target="7H_N8t5FlbTLg9l8uyXJ-62">
          <mxGeometry relative="1" as="geometry">
            <mxPoint x="480" y="910" as="sourcePoint" />
            <mxPoint x="445" y="910" as="targetPoint" />
            <Array as="points">
              <mxPoint x="450" y="880" />
              <mxPoint x="410" y="880" />
            </Array>
          </mxGeometry>
        </mxCell>
        <mxCell id="7H_N8t5FlbTLg9l8uyXJ-225" value="Id" style="ellipse;whiteSpace=wrap;html=1;align=center;fontStyle=4;" vertex="1" parent="1">
          <mxGeometry x="490" y="1550" width="100" height="40" as="geometry" />
        </mxCell>
        <mxCell id="7H_N8t5FlbTLg9l8uyXJ-226" value="" style="endArrow=none;html=1;rounded=0;exitX=0;exitY=0.5;exitDx=0;exitDy=0;entryX=1;entryY=1;entryDx=0;entryDy=0;edgeStyle=orthogonalEdgeStyle;" edge="1" parent="1" source="7H_N8t5FlbTLg9l8uyXJ-225" target="7H_N8t5FlbTLg9l8uyXJ-162">
          <mxGeometry relative="1" as="geometry">
            <mxPoint x="490" y="1460" as="sourcePoint" />
            <mxPoint x="445" y="1490" as="targetPoint" />
            <Array as="points">
              <mxPoint x="435" y="1570" />
            </Array>
          </mxGeometry>
        </mxCell>
        <mxCell id="7H_N8t5FlbTLg9l8uyXJ-228" value="Name" style="ellipse;whiteSpace=wrap;html=1;align=center;" vertex="1" parent="1">
          <mxGeometry x="600" y="690" width="100" height="40" as="geometry" />
        </mxCell>
        <mxCell id="7H_N8t5FlbTLg9l8uyXJ-229" value="Discount_price" style="ellipse;whiteSpace=wrap;html=1;align=center;" vertex="1" parent="1">
          <mxGeometry x="470" y="720" width="100" height="40" as="geometry" />
        </mxCell>
        <mxCell id="7H_N8t5FlbTLg9l8uyXJ-230" value="Original_price" style="ellipse;whiteSpace=wrap;html=1;align=center;" vertex="1" parent="1">
          <mxGeometry x="600" y="610" width="100" height="40" as="geometry" />
        </mxCell>
        <mxCell id="7H_N8t5FlbTLg9l8uyXJ-231" value="" style="endArrow=none;html=1;rounded=0;entryX=0.5;entryY=0;entryDx=0;entryDy=0;exitX=1;exitY=1;exitDx=0;exitDy=0;edgeStyle=orthogonalEdgeStyle;" edge="1" parent="1" source="7H_N8t5FlbTLg9l8uyXJ-39" target="7H_N8t5FlbTLg9l8uyXJ-229">
          <mxGeometry relative="1" as="geometry">
            <mxPoint x="390" y="620" as="sourcePoint" />
            <mxPoint x="550" y="620" as="targetPoint" />
            <Array as="points">
              <mxPoint x="520" y="680" />
            </Array>
          </mxGeometry>
        </mxCell>
        <mxCell id="7H_N8t5FlbTLg9l8uyXJ-234" value="" style="endArrow=none;html=1;rounded=0;entryX=0;entryY=0.5;entryDx=0;entryDy=0;exitX=1;exitY=0.25;exitDx=0;exitDy=0;edgeStyle=orthogonalEdgeStyle;" edge="1" parent="1" source="7H_N8t5FlbTLg9l8uyXJ-39" target="7H_N8t5FlbTLg9l8uyXJ-230">
          <mxGeometry relative="1" as="geometry">
            <mxPoint x="460" y="670" as="sourcePoint" />
            <mxPoint x="530" y="610" as="targetPoint" />
            <Array as="points">
              <mxPoint x="530" y="650" />
              <mxPoint x="530" y="630" />
            </Array>
          </mxGeometry>
        </mxCell>
        <mxCell id="7H_N8t5FlbTLg9l8uyXJ-235" value="" style="endArrow=none;html=1;rounded=0;entryX=0;entryY=0.5;entryDx=0;entryDy=0;exitX=1;exitY=0.75;exitDx=0;exitDy=0;edgeStyle=orthogonalEdgeStyle;" edge="1" parent="1" source="7H_N8t5FlbTLg9l8uyXJ-39" target="7H_N8t5FlbTLg9l8uyXJ-228">
          <mxGeometry relative="1" as="geometry">
            <mxPoint x="460" y="660" as="sourcePoint" />
            <mxPoint x="610" y="640" as="targetPoint" />
            <Array as="points">
              <mxPoint x="600" y="670" />
            </Array>
          </mxGeometry>
        </mxCell>
      </root>
    </mxGraphModel>
  </diagram>
</mxfile>
